<svg version="1.1" xmlns="http://www.w3.org/2000/svg" viewBox="0 0 793.2495064379834 343.6694190012762" width="2379.74851931395" height="1031.0082570038285">
  <!-- svg-source:excalidraw -->

  <defs>
    <style class="style-fonts">
      @font-face {
        font-family: "Virgil";
        src: url("https://excalidraw.com/Virgil.woff2");
      }
      @font-face {
        font-family: "Cascadia";
        src: url("https://excalidraw.com/Cascadia.woff2");
      }
    </style>

  </defs>
  <rect x="0" y="0" width="793.2495064379834" height="343.6694190012762" fill="#ffffff"></rect><g stroke-linecap="round" transform="translate(263.67089782492724 56.390234849405374) rotate(0 55.701453965630606 47.23222704687976)"><path d="M23.62 0 C42.69 -0.43, 59.95 -1.64, 87.79 0 M23.62 0 C46.51 -0.18, 70.37 0.78, 87.79 0 M87.79 0 C102.49 -1.8, 112.19 9.77, 111.4 23.62 M87.79 0 C105.32 -1.45, 111.45 8.66, 111.4 23.62 M111.4 23.62 C111.01 36.77, 113.25 46.86, 111.4 70.85 M111.4 23.62 C110.2 33.85, 110.06 44.87, 111.4 70.85 M111.4 70.85 C110.36 87.44, 103.65 93.99, 87.79 94.46 M111.4 70.85 C110.79 87.22, 105.82 95.02, 87.79 94.46 M87.79 94.46 C68.25 93.9, 45.72 94.13, 23.62 94.46 M87.79 94.46 C68.2 95.32, 47.24 93.75, 23.62 94.46 M23.62 94.46 C9.57 93.86, -1.72 86.23, 0 70.85 M23.62 94.46 C6.35 95.17, 1.02 87.49, 0 70.85 M0 70.85 C2.09 57.1, -1.07 46.28, 0 23.62 M0 70.85 C0.1 53.63, 0.46 38.21, 0 23.62 M0 23.62 C-1.57 6.86, 8.17 1.44, 23.62 0 M0 23.62 C0.32 10.14, 8.02 -2.08, 23.62 0" stroke="#e03131" stroke-width="1" fill="none"></path></g><g transform="translate(278.2473517905578 91.12246189628513) rotate(0 41.12499999999997 12.5)"><text x="41.125" y="0" font-family="Virgil, Segoe UI Emoji" font-size="20px" fill="#e03131" text-anchor="middle" style="white-space: pre;" direction="ltr" dominant-baseline="text-before-edge">Router 1</text></g><g stroke-linecap="round" transform="translate(260.7392423530516 179.19402517129276) rotate(0 55.701453965630606 47.23222704687976)"><path d="M23.62 0 C39.4 1.09, 53.59 0.52, 87.79 0 M23.62 0 C40.22 0.11, 58.15 -0.83, 87.79 0 M87.79 0 C104.9 -1.88, 113.16 6.33, 111.4 23.62 M87.79 0 C103.17 1.56, 110.83 9.23, 111.4 23.62 M111.4 23.62 C110.38 41.67, 112.66 60.04, 111.4 70.85 M111.4 23.62 C112.28 35.78, 111.15 45.76, 111.4 70.85 M111.4 70.85 C112.17 87.71, 102.99 94.58, 87.79 94.46 M111.4 70.85 C113.34 87.86, 102.27 92.66, 87.79 94.46 M87.79 94.46 C70.92 95.68, 56.13 95.44, 23.62 94.46 M87.79 94.46 C65.88 93.76, 42.6 95.32, 23.62 94.46 M23.62 94.46 C8.78 93.35, -1.25 85.62, 0 70.85 M23.62 94.46 C6.5 92.43, 1.09 88.44, 0 70.85 M0 70.85 C1.45 54.93, -1.58 38.38, 0 23.62 M0 70.85 C-1 60.72, -0.1 51.83, 0 23.62 M0 23.62 C0.35 7.7, 6.62 1.11, 23.62 0 M0 23.62 C0.59 6.11, 6.89 -1.73, 23.62 0" stroke="#e03131" stroke-width="1" fill="none"></path></g><g transform="translate(270.89902838044975 213.92625221817252) rotate(0 45.54166793823245 12.5)"><text x="45.54166793823242" y="0" font-family="Virgil, Segoe UI Emoji" font-size="20px" fill="#e03131" text-anchor="middle" style="white-space: pre;" direction="ltr" dominant-baseline="text-before-edge">Router 2</text></g><g stroke-linecap="round" transform="translate(441.4739075922108 106.13363039962286) rotate(0 55.701453965630606 47.23222704687976)"><path d="M23.62 0 C45.21 0.74, 65.29 1.01, 87.79 0 M23.62 0 C46.84 -0.17, 72.48 0.69, 87.79 0 M87.79 0 C102.01 -0.22, 112.06 8.48, 111.4 23.62 M87.79 0 C102.62 -2.09, 112.71 7.56, 111.4 23.62 M111.4 23.62 C109.91 33.83, 110.03 42.71, 111.4 70.85 M111.4 23.62 C111.65 34.8, 112.07 47.26, 111.4 70.85 M111.4 70.85 C110.56 86.17, 104.99 92.77, 87.79 94.46 M111.4 70.85 C112.28 86.65, 105.03 96.39, 87.79 94.46 M87.79 94.46 C69.1 94.59, 48.1 93.24, 23.62 94.46 M87.79 94.46 C68.1 93.88, 47.89 94.45, 23.62 94.46 M23.62 94.46 C7.27 94.84, -1.66 85.2, 0 70.85 M23.62 94.46 C5.96 92.55, -0.44 85.81, 0 70.85 M0 70.85 C0.13 57.86, 1.63 45.01, 0 23.62 M0 70.85 C-0.25 61.02, -1.17 52.39, 0 23.62 M0 23.62 C-1.43 9.54, 7.38 0.06, 23.62 0 M0 23.62 C-0.91 8.35, 8.61 -1.62, 23.62 0" stroke="#1e1e1e" stroke-width="1" fill="none"></path></g><g transform="translate(451.94619361960895 140.86585744650262) rotate(0 45.22916793823242 12.5)"><text x="45.22916793823242" y="0" font-family="Virgil, Segoe UI Emoji" font-size="20px" fill="#1e1e1e" text-anchor="middle" style="white-space: pre;" direction="ltr" dominant-baseline="text-before-edge">Router 3</text></g><g stroke-linecap="round" transform="translate(117.89705411643146 145.44410360524267) rotate(0 53.24816507436597 20.01810717081429)"><path d="M10.01 0 C33.97 0.09, 59.08 0.47, 96.49 0 M10.01 0 C30.54 -0.09, 50.51 0, 96.49 0 M96.49 0 C102.78 0.1, 106.81 3.87, 106.5 10.01 M96.49 0 C103.59 -0.48, 107.13 3.66, 106.5 10.01 M106.5 10.01 C106.65 17.13, 107.09 24.83, 106.5 30.03 M106.5 10.01 C106.63 14.29, 106.72 18.92, 106.5 30.03 M106.5 30.03 C106.65 36.39, 103.02 40.19, 96.49 40.04 M106.5 30.03 C106.32 36.04, 103.56 40.8, 96.49 40.04 M96.49 40.04 C63.7 40.63, 31.52 39.62, 10.01 40.04 M96.49 40.04 C77.71 40.07, 59.31 40.01, 10.01 40.04 M10.01 40.04 C3.58 39.58, 0.37 36.08, 0 30.03 M10.01 40.04 C2.65 40.46, 0.76 36.17, 0 30.03 M0 30.03 C-0.28 24.77, -0.06 19.75, 0 10.01 M0 30.03 C0.26 23.6, 0.05 16.73, 0 10.01 M0 10.01 C-0.03 2.98, 3.95 -0.53, 10.01 0 M0 10.01 C-0.08 3.56, 3.22 -0.22, 10.01 0" stroke="#1e1e1e" stroke-width="1" fill="none"></path></g><g transform="translate(141.17646919079746 152.96221077605696) rotate(0 29.96875 12.5)"><text x="29.96875" y="0" font-family="Virgil, Segoe UI Emoji" font-size="20px" fill="#1e1e1e" text-anchor="middle" style="white-space: pre;" direction="ltr" dominant-baseline="text-before-edge">Switch</text></g><g stroke-linecap="round" transform="translate(577.1124326149111 135.0346878764193) rotate(0 53.24816507436594 20.01810717081429)"><path d="M10.01 0 C44.04 0.91, 79.03 0.56, 96.49 0 M10.01 0 C40.26 0.34, 70.75 0.39, 96.49 0 M96.49 0 C102.58 -0.32, 106.71 3.01, 106.5 10.01 M96.49 0 C102.62 -0.72, 106.19 3.72, 106.5 10.01 M106.5 10.01 C105.94 14.65, 107.03 21.19, 106.5 30.03 M106.5 10.01 C106.4 16.88, 106.58 23.75, 106.5 30.03 M106.5 30.03 C107.14 36.4, 103.7 39.91, 96.49 40.04 M106.5 30.03 C107.09 35.95, 103.55 40.66, 96.49 40.04 M96.49 40.04 C65.36 39.89, 32.77 40.47, 10.01 40.04 M96.49 40.04 C62.09 40.18, 28.3 40.08, 10.01 40.04 M10.01 40.04 C2.97 40.14, 0.59 36.43, 0 30.03 M10.01 40.04 C4.09 40.76, 0.68 36.54, 0 30.03 M0 30.03 C-0.12 22.29, 0.5 14.98, 0 10.01 M0 30.03 C0.34 24.57, 0.29 18.6, 0 10.01 M0 10.01 C-0.54 3.64, 2.71 -0.02, 10.01 0 M0 10.01 C-0.42 4, 3.65 -0.56, 10.01 0" stroke="#1e1e1e" stroke-width="1" fill="none"></path></g><g transform="translate(600.391847689277 142.5527950472336) rotate(0 29.96875 12.5)"><text x="29.96875" y="0" font-family="Virgil, Segoe UI Emoji" font-size="20px" fill="#1e1e1e" text-anchor="middle" style="white-space: pre;" direction="ltr" dominant-baseline="text-before-edge">Switch</text></g><g stroke-linecap="round" transform="translate(21.81013969652298 75.78109065080918) rotate(0 33.23005790355171 44.84056006262398)"><path d="M16.62 0 C27.08 -0.31, 36.37 0.55, 49.85 0 M16.62 0 C27.23 -0.01, 40.63 0.61, 49.85 0 M49.85 0 C62.88 0.79, 64.49 7.5, 66.46 16.62 M49.85 0 C60.97 -1.64, 66.41 5.58, 66.46 16.62 M66.46 16.62 C67.34 29.59, 65.64 46, 66.46 73.07 M66.46 16.62 C65.88 37.63, 66.74 58.97, 66.46 73.07 M66.46 73.07 C68.25 85.39, 59.36 91.09, 49.85 89.68 M66.46 73.07 C66.32 84.67, 62.59 89.12, 49.85 89.68 M49.85 89.68 C42.23 90.55, 31.67 88.66, 16.62 89.68 M49.85 89.68 C41.22 89.83, 33.57 90.43, 16.62 89.68 M16.62 89.68 C5.81 88.96, 1.63 83.37, 0 73.07 M16.62 89.68 C3.34 90.16, 1.85 82.37, 0 73.07 M0 73.07 C-0.55 53.29, 0.75 35.21, 0 16.62 M0 73.07 C0.36 54.95, 0.34 36.67, 0 16.62 M0 16.62 C-0.6 7.23, 5.95 1.55, 16.62 0 M0 16.62 C0.05 3.41, 5.7 0.39, 16.62 0" stroke="#1e1e1e" stroke-width="1" fill="none"></path></g><g transform="translate(28.00894760007469 108.12165071343316) rotate(0 27.03125 12.5)"><text x="27.03125" y="0" font-family="Virgil, Segoe UI Emoji" font-size="20px" fill="#1e1e1e" text-anchor="middle" style="white-space: pre;" direction="ltr" dominant-baseline="text-before-edge">Client</text></g><g stroke-linecap="round" transform="translate(20.609053266274145 175.07090221804793) rotate(0 33.23005790355171 44.84056006262398)"><path d="M16.62 0 C28.29 -1.03, 41.65 0.29, 49.85 0 M16.62 0 C27.34 -0.64, 37.49 0.67, 49.85 0 M49.85 0 C62 -0.4, 64.9 5.76, 66.46 16.62 M49.85 0 C60.61 1.91, 64.85 6.51, 66.46 16.62 M66.46 16.62 C65.41 32.09, 66.42 46.58, 66.46 73.07 M66.46 16.62 C67.27 35.18, 67.33 54.87, 66.46 73.07 M66.46 73.07 C66.44 83.16, 61.77 90.83, 49.85 89.68 M66.46 73.07 C68.45 84.2, 61.1 89.54, 49.85 89.68 M49.85 89.68 C38.44 89.01, 29.56 89.66, 16.62 89.68 M49.85 89.68 C40.41 90.73, 30.2 90.59, 16.62 89.68 M16.62 89.68 C5.69 91.22, 1.74 84.3, 0 73.07 M16.62 89.68 C5.98 90.71, -1.45 86.34, 0 73.07 M0 73.07 C-1.82 50.05, 1.06 28.14, 0 16.62 M0 73.07 C0.25 53.97, 0.76 35.3, 0 16.62 M0 16.62 C1.96 4.9, 6.32 0.24, 16.62 0 M0 16.62 C0.48 5.83, 7.73 -1.92, 16.62 0" stroke="#1e1e1e" stroke-width="1" fill="none"></path></g><g transform="translate(26.807861169825856 207.4114622806719) rotate(0 27.03125 12.5)"><text x="27.03125" y="0" font-family="Virgil, Segoe UI Emoji" font-size="20px" fill="#1e1e1e" text-anchor="middle" style="white-space: pre;" direction="ltr" dominant-baseline="text-before-edge">Client</text></g><g stroke-linecap="round" transform="translate(700.2237917154188 60.567329200989775) rotate(0 33.23005790355171 44.84056006262398)"><path d="M16.62 0 C31.46 -0.32, 41.56 1.33, 49.85 0 M16.62 0 C30.55 -0.04, 42.75 0.74, 49.85 0 M49.85 0 C60.99 0.54, 65.06 5.91, 66.46 16.62 M49.85 0 C61.33 -1.26, 68.04 5.49, 66.46 16.62 M66.46 16.62 C68.54 37.84, 67.85 57.26, 66.46 73.07 M66.46 16.62 C66.21 28.74, 67.86 40.91, 66.46 73.07 M66.46 73.07 C67.14 82.77, 62.58 90.13, 49.85 89.68 M66.46 73.07 C67.82 82.37, 59.51 89.5, 49.85 89.68 M49.85 89.68 C38.39 89.57, 25.61 88.46, 16.62 89.68 M49.85 89.68 C42.13 90.14, 32.97 90.03, 16.62 89.68 M16.62 89.68 C6.73 89.02, -1.62 84.31, 0 73.07 M16.62 89.68 C7.38 87.5, 0.69 85.28, 0 73.07 M0 73.07 C-0.92 51.08, -1.43 33.54, 0 16.62 M0 73.07 C0.71 51.47, 0.47 30.18, 0 16.62 M0 16.62 C-0.25 3.84, 5.5 1.95, 16.62 0 M0 16.62 C0.12 6.52, 4.28 0.84, 16.62 0" stroke="#1e1e1e" stroke-width="1" fill="none"></path></g><g transform="translate(706.4225996189705 92.90788926361375) rotate(0 27.03125 12.5)"><text x="27.03125" y="0" font-family="Virgil, Segoe UI Emoji" font-size="20px" fill="#1e1e1e" text-anchor="middle" style="white-space: pre;" direction="ltr" dominant-baseline="text-before-edge">Client</text></g><g stroke-linecap="round" transform="translate(699.02270528517 159.85714076822853) rotate(0 33.23005790355171 44.84056006262398)"><path d="M16.62 0 C28.01 -0.25, 35.5 1.25, 49.85 0 M16.62 0 C26.49 0.02, 35.59 -0.06, 49.85 0 M49.85 0 C61.27 -1.1, 67.83 5.5, 66.46 16.62 M49.85 0 C62.26 0.59, 65.85 7.77, 66.46 16.62 M66.46 16.62 C65.17 38.29, 66.15 54.5, 66.46 73.07 M66.46 16.62 C67.28 31.87, 67.77 48.73, 66.46 73.07 M66.46 73.07 C67.64 82.6, 59.7 89.52, 49.85 89.68 M66.46 73.07 C68.4 84.96, 62.82 91.2, 49.85 89.68 M49.85 89.68 C39.52 89.42, 29.78 90.63, 16.62 89.68 M49.85 89.68 C38.17 89.55, 24.49 89.96, 16.62 89.68 M16.62 89.68 C7.14 87.79, 0.6 85.13, 0 73.07 M16.62 89.68 C6.84 91.19, 1.92 83.51, 0 73.07 M0 73.07 C2.02 59.97, -0.34 50.26, 0 16.62 M0 73.07 C-0.17 54.28, -0.06 38.16, 0 16.62 M0 16.62 C0.1 6.39, 4.44 0.73, 16.62 0 M0 16.62 C-0.73 5.19, 7.21 -0.54, 16.62 0" stroke="#1e1e1e" stroke-width="1" fill="none"></path></g><g transform="translate(705.2215131887217 192.1977008308525) rotate(0 27.03125 12.5)"><text x="27.03125" y="0" font-family="Virgil, Segoe UI Emoji" font-size="20px" fill="#1e1e1e" text-anchor="middle" style="white-space: pre;" direction="ltr" dominant-baseline="text-before-edge">Client</text></g><g stroke-linecap="round"><g transform="translate(404.2057760249702 282.399088176241) rotate(0 189.48420708267912 9.097541370793934)"><path d="M0.11 -0.08 C31.32 3, 124.29 18.3, 187.37 18.3 C250.46 18.3, 346.73 2.97, 378.62 -0.07 M-0.08 -0.3 C31.18 2.82, 124.58 18.43, 187.77 18.49 C250.95 18.56, 347.21 3.15, 379.04 0.11" stroke="#1e1e1e" stroke-width="1" fill="none"></path></g></g><mask></mask><g transform="translate(546.2405955805415 301.5853395375936) rotate(0 50.48958206176758 12.5)"><text x="50.48958206176758" y="0" font-family="Virgil, Segoe UI Emoji" font-size="20px" fill="#1e1e1e" text-anchor="middle" style="white-space: pre;" direction="ltr" dominant-baseline="text-before-edge">Network 2</text></g><g stroke-linecap="round"><g transform="translate(10.086724290674596 282.0437665873289) rotate(0 189.42638693546385 9.105218893539913)"><path d="M-0.09 -0.03 C31.12 3.01, 124.24 18.25, 187.41 18.26 C250.58 18.27, 347.04 3.03, 378.94 0.01 M0.23 -0.22 C31.4 2.85, 124.1 18.36, 187.21 18.43 C250.32 18.51, 346.97 3.35, 378.91 0.24" stroke="#1e1e1e" stroke-width="1" fill="none"></path></g></g><mask></mask><g transform="translate(156.53820796978115 301.2300179486815) rotate(0 46.07291793823242 12.5)"><text x="46.07291793823242" y="0" font-family="Virgil, Segoe UI Emoji" font-size="20px" fill="#1e1e1e" text-anchor="middle" style="white-space: pre;" direction="ltr" dominant-baseline="text-before-edge">Network 1</text></g><g stroke-linecap="round"><g transform="translate(88.2702555036264 119.02020213976738) rotate(0 17.567148715769804 11.565387612910598)"><path d="M0.11 -0.17 C5.99 3.68, 29.35 19.38, 35.24 23.3 M-0.1 0.22 C5.75 3.99, 29.14 19.15, 35.07 22.95" stroke="#1e1e1e" stroke-width="1" fill="none"></path></g></g><mask></mask><g stroke-linecap="round"><g transform="translate(87.46953121679377 211.10349512551306) rotate(0 17.659701761891753 -12.333207947013136)"><path d="M0.1 -0.22 C6.03 -4.37, 29.61 -20.74, 35.44 -24.83 M-0.13 0.17 C5.8 -3.96, 29.43 -20.43, 35.37 -24.54" stroke="#1e1e1e" stroke-width="1" fill="none"></path></g></g><mask></mask><g stroke-linecap="round"><g transform="translate(696.8207134963804 112.61440784510683) rotate(0 -16.856420695277848 10.807684670450442)"><path d="M-0.17 -0.2 C-5.79 3.43, -28.28 17.96, -33.84 21.57 M0.13 0.17 C-5.42 3.84, -27.84 18.25, -33.47 21.81" stroke="#1e1e1e" stroke-width="1" fill="none"></path></g></g><mask></mask><g stroke-linecap="round"><g transform="translate(698.4221620700456 195.88973367569423) rotate(0 -19.247919959214187 -10.457339941050463)"><path d="M0.14 -0.2 C-6.28 -3.66, -32.19 -17.29, -38.64 -20.74 M-0.04 0.16 C-6.39 -3.37, -31.82 -17.6, -38.26 -21.07" stroke="#1e1e1e" stroke-width="1" fill="none"></path></g></g><mask></mask><g stroke-linecap="round"><g transform="translate(576.7120704714948 155.85351933406565) rotate(0 -11.553703662084558 -0.03982806328474453)"><path d="M0.1 -0.05 C-3.73 -0.06, -19.24 -0.06, -23.14 -0.05 M-0.02 -0.2 C-3.85 -0.19, -19.31 0.05, -23.21 0.12" stroke="#1e1e1e" stroke-width="1" fill="none"></path></g></g><mask></mask><g stroke-linecap="round"><g transform="translate(375.7302744765194 112.61440784510683) rotate(0 32.88538426975862 21.117684817992796)"><path d="M-0.16 -0.14 C10.88 6.9, 54.92 35.26, 65.93 42.34 M0.46 -0.55 C11.5 6.54, 54.88 35.57, 65.77 42.79" stroke="#1e1e1e" stroke-width="1" fill="none"></path></g></g><mask></mask><g stroke-linecap="round"><g transform="translate(441.3896659967903 153.45134647356798) rotate(0 -33.84232796450385 34.567617290240975)"><path d="M0.31 0.64 C-10.79 12.11, -55.77 57.75, -67.12 69.21 M-0.98 -0.08 C-12.18 10.99, -56.68 56.03, -68 67.27" stroke="#1e1e1e" stroke-width="1" fill="none"></path></g></g><mask></mask><g stroke-linecap="round"><g transform="translate(225.19410855199604 164.66148648922393) rotate(0 19.54633899434174 -30.168785621772543)"><path d="M-0.34 -0.12 C6.22 -10.09, 32.82 -49.73, 39.44 -59.76 M0.11 -0.48 C6.63 -10.55, 32.75 -50.29, 39.27 -60.22" stroke="#1e1e1e" stroke-width="1" fill="none"></path></g></g><mask></mask><g stroke-linecap="round"><g transform="translate(225.19410855199604 165.4622107760565) rotate(0 17.459807578477353 33.22900499201816)"><path d="M0.06 -0.02 C5.92 11.05, 29.36 55.34, 35.19 66.39 M-0.27 -0.29 C5.55 10.83, 29.09 55.6, 34.93 66.74" stroke="#1e1e1e" stroke-width="1" fill="none"></path></g></g><mask></mask><g transform="translate(267.93093217317437 24.534736293524077) rotate(0 50.94791793823239 12.5)"><text x="50.94791793823242" y="0" font-family="Virgil, Segoe UI Emoji" font-size="20px" fill="#e03131" text-anchor="middle" style="white-space: pre;" direction="ltr" dominant-baseline="text-before-edge">Redundant</text></g><g stroke-linecap="round"><g stroke-opacity="0.6" fill-opacity="0.6" transform="translate(398.95127879466395 10.121699130537706) rotate(0 -1.4948444381986405 161.7130103701004)"><path d="M0.13 -0.12 C-0.39 53.78, -2.57 269.63, -3.12 323.55" stroke="#1e1e1e" stroke-width="1.5" fill="none" stroke-dasharray="8 9"></path></g></g><mask></mask></svg>
